HIERARCHY
ROOT Hips
{
  OFFSET 35.7769 98.643 2.49324
  CHANNELS 6 Xposition Yposition Zposition Zrotation Xrotation Yrotation
  JOINT spine
  {
    OFFSET 0 8.30104 0.477351
    CHANNELS 3 Zrotation Xrotation Yrotation
    JOINT spine1
    {
      OFFSET 0 10.4565 0
      CHANNELS 3 Zrotation Xrotation Yrotation
      JOINT spine2
      {
        OFFSET 0 10.0192 0
        CHANNELS 3 Zrotation Xrotation Yrotation
        JOINT Neck
        {
          OFFSET 0 25.7235 1.22641
          CHANNELS 3 Zrotation Xrotation Yrotation
          JOINT Head
          {
            OFFSET 0 7.77175 0
            CHANNELS 3 Zrotation Xrotation Yrotation
            End Site
            {
              OFFSET 0 18.812 -6.20394
            }
          }
        }
        JOINT RightShoulder
        {
          OFFSET -4.2188 10.82 -0.587439
          CHANNELS 3 Zrotation Xrotation Yrotation
          JOINT RightArm
          {
            OFFSET 0 14.1914 0
            CHANNELS 3 Zrotation Xrotation Yrotation
            JOINT RightArmRoll
            {
              OFFSET 0 7.16408 0
              CHANNELS 3 Zrotation Xrotation Yrotation
              JOINT RightForeArm
              {
                OFFSET 0 20.8665 0
                CHANNELS 3 Zrotation Xrotation Yrotation
                JOINT RightForeArmRoll
                {
                  OFFSET 0 8.03921 0
                  CHANNELS 3 Zrotation Xrotation Yrotation
                  JOINT RightHand
                  {
                    OFFSET 0 16.133 0
                    CHANNELS 3 Zrotation Xrotation Yrotation
                    End Site
                    {
                      OFFSET 0 0 0
                    }
                  }
                }
              }
            }
          }
        }
        JOINT LeftShoulder
        {
          OFFSET 4.2188 10.82 -0.587439
          CHANNELS 3 Zrotation Xrotation Yrotation
          JOINT LeftArm
          {
            OFFSET 0 14.1914 0
            CHANNELS 3 Zrotation Xrotation Yrotation
            JOINT LeftArmRoll
            {
              OFFSET 0 7.16408 0
              CHANNELS 3 Zrotation Xrotation Yrotation
              JOINT LeftForeArm
              {
                OFFSET 0 20.8665 0
                CHANNELS 3 Zrotation Xrotation Yrotation
                JOINT LeftForeArmRoll
                {
                  OFFSET 0 8.03921 0
                  CHANNELS 3 Zrotation Xrotation Yrotation
                  JOINT LeftHand
                  {
                    OFFSET 0 16.133 0
                    CHANNELS 3 Zrotation Xrotation Yrotation
                    End Site
                    {
                      OFFSET 0 0 0
                    }
                  }
                }
              }
            }
          }
        }
      }
    }
  }
  JOINT RightUpLeg
  {
    OFFSET -7.35773 -1.34921 -1.13182
    CHANNELS 3 Zrotation Xrotation Yrotation
    JOINT RightUpLegRoll
    {
      OFFSET 0 18.9168 0
      CHANNELS 3 Zrotation Xrotation Yrotation
      JOINT RightLeg
      {
        OFFSET 0 -23.4256 0
        CHANNELS 3 Zrotation Xrotation Yrotation
        JOINT RightLegRoll
        {
          OFFSET 0 23.5023 0
          CHANNELS 3 Zrotation Xrotation Yrotation
          JOINT RightFoot
          {
            OFFSET 0 19.5617 0
            CHANNELS 3 Zrotation Xrotation Yrotation
            JOINT RightToeBase
            {
              OFFSET 0 16.3526 0
              CHANNELS 3 Zrotation Xrotation Yrotation
              End Site
              {
                OFFSET 0.00693125 7.91944 -0.912836
              }
            }
          }
        }
      }
    }
  }
  JOINT LeftUpLeg
  {
    OFFSET 7.35773 -1.34921 -1.13182
    CHANNELS 3 Zrotation Xrotation Yrotation
    JOINT LeftUpLegRoll
    {
      OFFSET 0 18.9169 0
      CHANNELS 3 Zrotation Xrotation Yrotation
      JOINT LeftLeg
      {
        OFFSET 0 23.4255 0
        CHANNELS 3 Zrotation Xrotation Yrotation
        JOINT LeftLegRoll
        {
          OFFSET 0 23.7195 0
          CHANNELS 3 Zrotation Xrotation Yrotation
          JOINT LeftFoot
          {
            OFFSET 0 19.3444 0
            CHANNELS 3 Zrotation Xrotation Yrotation
            JOINT LeftToeBase
            {
              OFFSET 0 16.3526 0
              CHANNELS 3 Zrotation Xrotation Yrotation
              End Site
              {
                OFFSET -0.0310629 7.91943 -0.912837
              }
            }
          }
        }
      }
    }
  }
}
MOTION
Frames: 12
Frame Time: 0.00208333
35.6289 108.191 4.39737 1.5185 -3.04762 3.60162 0.195208 -0.966452 0.409846 0.393847 2.0713 0.79351 0.384694 3.71629 0.787467 3.15036 15.2974 -1.44173 -9.02118 -10.6413 -2.281 62.4694 -6.35487 -4.11101 77.0979 15.9839 38.2842 -5.84874e-008 -9.05946e-007 -1.62329e-006 0.983794 33.0807 0.517428 -9.41674e-006 -3.37043e-006 -3.00523 8.02923 -4.95141 0.69769 -57.0811 -3.40531 1.96316 -82.1453 16.2547 -30.0776 -2.71693e-006 -1.81963e-006 2.99747e-006 -1.50471 31.3816 1.35389 5.50844e-006 1.99926e-006 3.0073 -8.02889 -4.95147 -0.69769 175.715 3.65762 2.38108 180 7.01538e-015 178.883 175.556 15.7451 179.8 -2.44103e-006 -4.48678e-006 0.207996 -18.0708 67.4146 19.0613 8.13649 25.2327 -3.48774 -175.834 5.90235 -0.15703 4.54188e-006 -4.6773e-006 -1.13522 -3.96775 -18.7113 0.194953 -1.84517e-006 -2.56875e-006 -0.260708 18.4025 67.7417 -19.3226 -8.13649 25.2326 3.48773 
35.6363 108.124 4.39808 1.52276 -3.05227 3.60943 0.193183 -0.96007 0.409989 0.389745 2.08405 0.792929 0.380597 3.72903 0.786956 3.03579 15.2654 -1.43908 -8.89596 -10.647 -2.28789 62.6104 -6.30646 -4.08975 77.5013 15.8541 38.1617 -5.84874e-008 -9.05946e-007 -1.62329e-006 1.07069 32.5132 0.480435 -9.41674e-006 -3.37043e-006 -3.00523 8.02923 -4.95141 0.69769 -57.1819 -3.37612 1.95318 -82.5028 16.103 -29.7615 -2.71693e-006 -1.81963e-006 2.99747e-006 -1.67354 30.7432 1.40028 5.50844e-006 1.99926e-006 3.0073 -8.02889 -4.95147 -0.69769 175.871 3.76054 2.32333 180 7.01538e-015 178.886 175.518 15.9015 179.809 -2.44103e-006 -4.48678e-006 0.210387 -18.0923 67.45 19.0888 8.13649 25.2327 -3.48774 -175.975 5.94425 -0.115961 4.54188e-006 -4.6773e-006 -1.13439 -4.00779 -18.8803 0.18445 -1.84517e-006 -2.56875e-006 -0.263203 18.4063 67.7526 -19.3316 -8.13649 25.2326 3.48773 
35.6085 107.983 4.39972 1.52863 -3.05622 3.61639 0.191165 -0.953867 0.410012 0.385641 2.09644 0.792076 0.3765 3.74142 0.786172 2.91216 15.2357 -1.43461 -8.76281 -10.655 -2.29413 62.7429 -6.25872 -4.06871 77.9137 15.7261 38.0392 -5.84874e-008 -9.05946e-007 -1.62329e-006 1.15545 31.9548 0.446367 -9.41674e-006 -3.37043e-006 -3.00523 8.02923 -4.95141 0.69769 -57.2842 -3.34855 1.94446 -82.8575 15.9531 -29.4443 -2.71693e-006 -1.81963e-006 2.99747e-006 -1.84527 30.1033 1.44561 5.50844e-006 1.99926e-006 3.0073 -8.02889 -4.95147 -0.69769 176.022 3.86636 2.27009 180 7.01539e-015 178.888 175.478 16.0655 179.818 -2.44103e-006 -4.48678e-006 0.212908 -18.1131 67.4843 19.1155 8.13649 25.2327 -3.48774 -176.115 5.98767 -0.0770518 4.54188e-006 -4.6773e-006 -1.13365 -4.04895 -19.0534 0.17366 -1.84517e-006 -2.56875e-006 -0.26575 18.4102 67.7637 -19.3407 -8.13649 25.2326 3.48773 
35.6202 107.873 4.41789 1.5358 -3.05951 3.6226 0.189195 -0.947843 0.40993 0.381617 2.10847 0.791007 0.372486 3.75345 0.785171 2.78118 15.2078 -1.42866 -8.6232 -10.665 -2.29982 62.8679 -6.21172 -4.04794 78.3337 15.6003 37.9172 -5.84874e-008 -9.05947e-007 -1.62329e-006 1.23792 31.4046 0.415021 -9.41674e-006 -3.37043e-006 -3.00524 8.02923 -4.95141 0.69769 -57.3876 -3.32235 1.93678 -83.21 15.8042 -29.1265 -2.71693e-006 -1.81963e-006 2.99747e-006 -2.01928 29.4644 1.48962 5.50844e-006 1.99926e-006 3.0073 -8.02889 -4.95147 -0.69769 176.167 3.97433 2.22078 180 7.01539e-015 178.89 175.439 16.2356 179.827 -2.44103e-006 -4.48678e-006 0.215532 -18.1332 67.5174 19.1414 8.13649 25.2327 -3.48774 -176.253 6.03239 -0.0403271 4.54188e-006 -4.6773e-006 -1.13299 -4.09091 -19.2302 0.162646 -1.84517e-006 -2.56875e-006 -0.268343 18.4143 67.7749 -19.3499 -8.13649 25.2326 3.48773 
35.5836 107.742 4.41342 1.54397 -3.06219 3.62812 0.187312 -0.942002 0.40976 0.377757 2.12013 0.789776 0.368638 3.76512 0.784006 2.64454 15.1816 -1.42157 -8.47862 -10.6766 -2.30507 62.9859 -6.16552 -4.02746 78.7601 15.4769 37.7959 -5.84874e-008 -9.05946e-007 -1.62329e-006 1.31795 30.8614 0.386202 -9.41674e-006 -3.37043e-006 -3.00524 8.02923 -4.95141 0.69769 -57.4917 -3.29723 1.9299 -83.5609 15.6557 -28.809 -2.71693e-006 -1.81963e-006 2.99747e-006 -2.19497 28.829 1.5321 5.50844e-006 1.99926e-006 3.0073 -8.02889 -4.95147 -0.69769 176.306 4.08374 2.1748 180 7.0154e-015 178.892 175.399 16.4107 179.835 -2.44103e-006 -4.48678e-006 0.218233 -18.1525 67.5492 19.1663 8.13649 25.2327 -3.48774 -176.388 6.07823 -0.00581135 4.54188e-006 -4.6773e-006 -1.13243 -4.13337 -19.4099 0.15147 -1.84517e-006 -2.56875e-006 -0.270973 18.4186 67.786 -19.359 -8.13649 25.2326 3.48773 
35.5942 107.629 4.41525 1.55281 -3.06431 3.63303 0.185556 -0.936347 0.409517 0.374144 2.13143 0.788441 0.365039 3.77642 0.782732 2.50393 15.1568 -1.41369 -8.33057 -10.6893 -2.31 63.0978 -6.12021 -4.00733 79.1914 15.3563 37.6757 -5.84874e-008 -9.05946e-007 -1.62329e-006 1.39537 30.324 0.359726 -9.41674e-006 -3.37043e-006 -3.00524 8.02923 -4.95141 0.69769 -57.596 -3.27291 1.92362 -83.9108 15.5068 -28.4925 -2.71693e-006 -1.81963e-006 2.99747e-006 -2.37176 28.1997 1.57282 5.50844e-006 1.99926e-006 3.0073 -8.02889 -4.95147 -0.69769 176.442 4.19383 2.13156 180 7.0154e-015 178.894 175.36 16.5892 179.844 -2.44103e-006 -4.48678e-006 0.220984 -18.171 67.5797 19.1902 8.13649 25.2327 -3.48774 -176.521 6.12497 0.0264707 4.54188e-006 -4.6773e-006 -1.13197 -4.17602 -19.5919 0.140197 -1.84517e-006 -2.56875e-006 -0.273632 18.4229 67.797 -19.3682 -8.13649 25.2326 3.48773 
35.6023 107.494 4.42561 1.56203 -3.06592 3.63742 0.183966 -0.930881 0.409217 0.370863 2.14234 0.787055 0.361772 3.78733 0.781402 2.36106 15.1333 -1.40536 -8.18051 -10.7028 -2.31472 63.2043 -6.07584 -3.98757 79.6266 15.2388 37.5569 -5.84874e-008 -9.05946e-007 -1.62329e-006 1.47 29.7912 0.335417 -9.41674e-006 -3.37043e-006 -3.00524 8.02923 -4.95141 0.69769 -57.7001 -3.24912 1.91769 -84.2603 15.3567 -28.1776 -2.71693e-006 -1.81963e-006 2.99747e-006 -2.54909 27.5789 1.61155 5.50844e-006 1.99926e-006 3.0073 -8.02889 -4.95147 -0.69769 176.573 4.30388 2.09048 180 7.01541e-015 178.895 175.323 16.7698 179.853 -2.44103e-006 -4.48678e-006 0.223759 -18.1885 67.6087 19.2129 8.13649 25.2327 -3.48774 -176.65 6.17241 0.0564943 4.54188e-006 -4.6773e-006 -1.13162 -4.21854 -19.7755 0.128891 -1.84517e-006 -2.56875e-006 -0.27631 18.4273 67.8079 -19.3772 -8.13649 25.2326 3.48773 
35.6409 107.376 4.43312 1.5713 -3.06705 3.64135 0.182581 -0.925606 0.408877 0.367995 2.15288 0.785676 0.358919 3.79787 0.780071 2.21762 15.1107 -1.39692 -8.02996 -10.7168 -2.31933 63.3063 -6.0325 -3.96822 80.0641 15.1247 37.4397 -5.84874e-008 -9.05946e-007 -1.62329e-006 1.54165 29.2621 0.313104 -9.41674e-006 -3.37043e-006 -3.00524 8.02923 -4.95141 0.69769 -57.8035 -3.22558 1.91191 -84.6101 15.2047 -27.8652 -2.71693e-006 -1.81963e-006 2.99747e-006 -2.72641 26.9692 1.64808 5.50844e-006 1.99926e-006 3.0073 -8.02889 -4.95147 -0.69769 176.701 4.41316 2.05096 180 7.01541e-015 178.897 175.286 16.9512 179.861 -2.44103e-006 -4.48678e-006 0.22653 -18.205 67.6362 19.2346 8.13649 25.2327 -3.48774 -176.776 6.22036 0.0842347 4.54188e-006 -4.6773e-006 -1.13137 -4.26062 -19.9601 0.117616 -1.84517e-006 -2.56875e-006 -0.279002 18.4316 67.8184 -19.386 -8.13649 25.2326 3.48773 
35.5936 107.231 4.43071 1.58032 -3.06777 3.64492 0.181441 -0.920527 0.408512 0.365625 2.16303 0.784357 0.356563 3.80802 0.778793 2.0753 15.0889 -1.38873 -7.88038 -10.7308 -2.32394 63.4044 -5.99025 -3.94932 80.5028 15.0144 37.3246 -5.84874e-008 -9.05946e-007 -1.62329e-006 1.61011 28.7354 0.292625 -9.41674e-006 -3.37043e-006 -3.00524 8.02923 -4.95141 0.69769 -57.9058 -3.20201 1.90605 -84.9606 15.05 -27.5559 -2.71693e-006 -1.81963e-006 2.99747e-006 -2.9032 26.3731 1.68219 5.50844e-006 1.99926e-006 3.0073 -8.02889 -4.95147 -0.69769 176.826 4.52093 2.0124 180 7.01541e-015 178.898 175.252 17.1319 179.869 -2.44103e-006 -4.48678e-006 0.229271 -18.2205 67.662 19.255 8.13649 25.2327 -3.48774 -176.898 6.26861 0.109667 4.54188e-006 -4.6773e-006 -1.13125 -4.30194 -20.1449 0.106438 -1.84517e-006 -2.56875e-006 -0.281696 18.436 67.8286 -19.3945 -8.13649 25.2326 3.48773 
35.6047 107.11 4.44357 1.58878 -3.06812 3.64819 0.180586 -0.915644 0.408139 0.363835 2.17278 0.783156 0.354787 3.81777 0.777621 1.9358 15.0675 -1.38111 -7.73327 -10.7445 -2.32867 63.4994 -5.94918 -3.9309 80.9414 14.9082 37.2118 -5.84874e-008 -9.05946e-007 -1.62329e-006 1.67518 28.21 0.273822 -9.41674e-006 -3.37043e-006 -3.00525 8.02923 -4.95141 0.69769 -58.0065 -3.17814 1.89989 -85.3125 14.892 -27.2506 -2.71693e-006 -1.81963e-006 2.99747e-006 -3.07892 25.7932 1.71367 5.50844e-006 1.99926e-006 3.0073 -8.02889 -4.95147 -0.69769 176.949 4.62644 1.97423 180 7.01541e-015 178.899 175.219 17.3105 179.876 -2.44103e-006 -4.48678e-006 0.231956 -18.2348 67.6861 19.274 8.13649 25.2327 -3.48774 -177.015 6.31695 0.132766 4.54188e-006 -4.6773e-006 -1.13125 -4.34219 -20.3295 0.0954215 -1.84517e-006 -2.56875e-006 -0.284387 18.4403 67.8383 -19.4028 -8.13649 25.2326 3.48773 
35.5847 106.945 4.44236 1.59636 -3.06814 3.65124 0.180054 -0.910962 0.407773 0.36271 2.18214 0.782126 0.353674 3.82713 0.776612 1.80081 15.0464 -1.37441 -7.59011 -10.7574 -2.33363 63.5922 -5.90934 -3.913 81.3786 14.8063 37.1015 -5.84874e-008 -9.05946e-007 -1.62329e-006 1.73664 27.6848 0.256544 -9.41674e-006 -3.37043e-006 -3.00525 8.02923 -4.95141 0.69769 -58.1051 -3.15369 1.8932 -85.6663 14.7299 -26.95 -2.71693e-006 -1.81963e-006 2.99747e-006 -3.25309 25.2318 1.7423 5.50844e-006 1.99926e-006 3.0073 -8.02889 -4.95147 -0.69769 177.069 4.72898 1.93585 180 7.01542e-015 178.901 175.19 17.4858 179.883 -2.44103e-006 -4.48678e-006 0.234559 -18.248 67.7084 19.2917 8.13649 25.2327 -3.48774 -177.127 6.36519 0.153507 4.54188e-006 -4.6773e-006 -1.13138 -4.38104 -20.5131 0.0846334 -1.84517e-006 -2.56875e-006 -0.287065 18.4446 67.8474 -19.4106 -8.13649 25.2326 3.48773 
35.5514 106.815 4.45005 1.60275 -3.06789 3.65416 0.179885 -0.906484 0.40743 0.362331 2.19109 0.781325 0.353305 3.83609 0.775817 1.67203 15.0253 -1.36898 -7.45239 -10.7692 -2.33891 63.6835 -5.87081 -3.89566 81.8132 14.7093 36.9942 -5.84874e-008 -9.05946e-007 -1.62329e-006 1.79426 27.1586 0.240643 -9.41674e-006 -3.37043e-006 -3.00525 8.02923 -4.95141 0.69769 -58.2013 -3.12837 1.88576 -86.0226 14.563 -26.6548 -2.71693e-006 -1.81963e-006 2.99747e-006 -3.42521 24.6916 1.76787 5.50844e-006 1.99926e-006 3.0073 -8.02889 -4.95147 -0.69769 177.188 4.82781 1.89666 180 7.01542e-015 178.902 175.164 17.6562 179.888 -2.44103e-006 -4.48678e-006 0.237052 -18.2599 67.7287 19.308 8.13649 25.2327 -3.48774 -177.233 6.41312 0.171864 4.54188e-006 -4.6773e-006 -1.13165 -4.41818 -20.695 0.0741401 -1.84517e-006 -2.56875e-006 -0.289723 18.4487 67.8559 -19.418 -8.13649 25.2326 3.48773 
